# xmcd
#
# Track frame offsets:
#	150
#	10170
#	19126
#	36746
#	50067
#	61443
#	70779
#	80032
#	91978
#	105104
#	117386
#	127589
#	138848
#	153905
#
# Disc length: 2238 seconds
# Revision: 0
# Processed by: cddbd v1.5.2PL0 Copyright (c) Steve Scherf et al.
# Submitted via: dBpowerAMP V12.0
#
DISCID=b208bc0e
DTITLE=Marcia Armfield - Music's Been My Life
DYEAR=1900
DGENRE=Country
TTITLE0=Music My Way of Life
TTITLE1=Jasmine
TTITLE2=Westwood
TTITLE3=I Remember Patsy
TTITLE4=Jones on The Jukebox
TTITLE5=Old Country Church
TTITLE6=A Picture of Me
TTITLE7=Queen and a Cowboy Friend
TTITLE8=Tenessee Flat Top Box
TTITLE9=Making Believe
TTITLE10=I'm Just Me
TTITLE11=Paintings of Australia
TTITLE12=Faded Love
TTITLE13=Old Ford Cars and Fender Guitars
EXTD=
EXTT0=
EXTT1=
EXTT2=
EXTT3=
EXTT4=
EXTT5=
EXTT6=
EXTT7=
EXTT8=
EXTT9=
EXTT10=
EXTT11=
EXTT12=
EXTT13=
PLAYORDER=
